<?xml version="1.0" encoding="us-ascii" standalone="no"?><svg xmlns="http://www.w3.org/2000/svg" xmlns:xlink="http://www.w3.org/1999/xlink" contentStyleType="text/css" height="676px" preserveAspectRatio="none" style="width:623px;height:676px;background:#FFFFFF;" version="1.1" viewBox="0 0 623 676" width="623px" zoomAndPan="magnify"><defs/><g><text fill="#000000" font-family="sans-serif" font-size="14" font-weight="bold" lengthAdjust="spacing" textLength="56" x="282" y="35.1074">&#35789;&#27861;&#20998;&#26512;</text><ellipse cx="310.5" cy="59.6211" fill="#222222" rx="10" ry="10" style="stroke:#222222;stroke-width:1.0;"/><rect fill="#F1F1F1" height="35.9609" rx="12.5" ry="12.5" style="stroke:#181818;stroke-width:0.5;" width="47" x="287" y="89.6211"/><text fill="#000000" font-family="sans-serif" font-size="12" lengthAdjust="spacing" textLength="24" x="300" y="112.5703">&#24320;&#22987;</text><rect fill="#F1F1F1" height="35.9609" rx="12.5" ry="12.5" style="stroke:#181818;stroke-width:0.5;" width="104" x="258.5" y="145.582"/><text fill="#000000" font-family="sans-serif" font-size="12" lengthAdjust="spacing" textLength="84" x="268.5" y="168.5313">&#29983;&#25104;&#23383;&#31526;&#36845;&#20195;&#22120;</text><rect fill="#F1F1F1" height="35.9609" rx="12.5" ry="12.5" style="stroke:#181818;stroke-width:0.5;" width="68" x="276.5" y="258.9131"/><text fill="#000000" font-family="sans-serif" font-size="12" lengthAdjust="spacing" textLength="48" x="286.5" y="281.8623">&#35835;&#21462;&#23383;&#31526;</text><polygon fill="#F1F1F1" points="48,314.874,87,314.874,99,326.874,87,338.874,48,338.874,36,326.874,48,314.874" style="stroke:#181818;stroke-width:0.5;"/><text fill="#000000" font-family="sans-serif" font-size="11" lengthAdjust="spacing" textLength="18" x="71.5" y="350.7441">yes</text><text fill="#000000" font-family="sans-serif" font-size="11" lengthAdjust="spacing" textLength="39" x="48" y="331.4287">&#26159;&#31354;&#26684;?</text><rect fill="#F1F1F1" height="35.9609" rx="12.5" ry="12.5" style="stroke:#181818;stroke-width:0.5;" width="44" x="45.5" y="373.5049"/><text fill="#000000" font-family="sans-serif" font-size="12" lengthAdjust="spacing" textLength="24" x="55.5" y="396.4541">&#36339;&#36807;</text><polygon fill="#F1F1F1" points="152,314.874,218,314.874,230,326.874,218,338.874,152,338.874,140,326.874,152,314.874" style="stroke:#181818;stroke-width:0.5;"/><text fill="#000000" font-family="sans-serif" font-size="11" lengthAdjust="spacing" textLength="18" x="189" y="350.7441">yes</text><text fill="#000000" font-family="sans-serif" font-size="11" lengthAdjust="spacing" textLength="66" x="152" y="331.4287">&#23383;&#27597;&#25110;&#19979;&#21010;&#32447;</text><rect fill="#F1F1F1" height="35.9609" rx="12.5" ry="12.5" style="stroke:#181818;stroke-width:0.5;" width="152" x="109" y="373.5049"/><text fill="#000000" font-family="sans-serif" font-size="12" lengthAdjust="spacing" textLength="132" x="119" y="396.4541">&#36827;&#20837;&#26631;&#35782;&#31526;&#25110;&#20851;&#38190;&#23383;&#35782;&#21035;</text><polygon fill="#F1F1F1" points="315,314.874,339,314.874,351,326.874,339,338.874,315,338.874,303,326.874,315,314.874" style="stroke:#181818;stroke-width:0.5;"/><text fill="#000000" font-family="sans-serif" font-size="11" lengthAdjust="spacing" textLength="18" x="331" y="350.7441">yes</text><text fill="#000000" font-family="sans-serif" font-size="11" lengthAdjust="spacing" textLength="22" x="316" y="331.4287">&#25968;&#23383;</text><rect fill="#F1F1F1" height="35.9609" rx="12.5" ry="12.5" style="stroke:#181818;stroke-width:0.5;" width="92" x="281" y="373.5049"/><text fill="#000000" font-family="sans-serif" font-size="12" lengthAdjust="spacing" textLength="72" x="291" y="396.4541">&#36827;&#20837;&#24120;&#37327;&#35782;&#21035;</text><polygon fill="#F1F1F1" points="428.5,314.874,461.5,314.874,473.5,326.874,461.5,338.874,428.5,338.874,416.5,326.874,428.5,314.874" style="stroke:#181818;stroke-width:0.5;"/><text fill="#000000" font-family="sans-serif" font-size="11" lengthAdjust="spacing" textLength="18" x="449" y="350.7441">yes</text><text fill="#000000" font-family="sans-serif" font-size="11" lengthAdjust="spacing" textLength="33" x="428.5" y="331.4287">&#25805;&#20316;&#31526;</text><text fill="#000000" font-family="sans-serif" font-size="11" lengthAdjust="spacing" textLength="22" x="473.5" y="324.1133">&#20854;&#20182;</text><rect fill="#F1F1F1" height="35.9609" rx="12.5" ry="12.5" style="stroke:#181818;stroke-width:0.5;" width="104" x="393" y="373.5049"/><text fill="#000000" font-family="sans-serif" font-size="12" lengthAdjust="spacing" textLength="84" x="403" y="396.4541">&#36827;&#20837;&#25805;&#20316;&#31526;&#35782;&#21035;</text><rect fill="#F1F1F1" height="35.9609" rx="12.5" ry="12.5" style="stroke:#181818;stroke-width:0.5;" width="78" x="507" y="369.1895"/><text fill="#000000" font-family="sans-serif" font-size="12" lengthAdjust="spacing" textLength="58" x="517" y="392.1387">&#20854;&#20182;Token</text><rect fill="#F1F1F1" height="35.9609" rx="12.5" ry="12.5" style="stroke:#181818;stroke-width:0.5;" width="119" x="251" y="453.335"/><text fill="#000000" font-family="sans-serif" font-size="12" lengthAdjust="spacing" textLength="96" x="264" y="476.2842">&#30830;&#23450;&#35789;&#27861;&#21333;&#20803;&#31867;&#22411;</text><rect fill="#F1F1F1" height="35.9609" rx="12.5" ry="12.5" style="stroke:#181818;stroke-width:0.5;" width="95" x="263" y="509.2959"/><text fill="#000000" font-family="sans-serif" font-size="12" lengthAdjust="spacing" textLength="72" x="276" y="532.2451">&#36755;&#20986;&#35789;&#27861;&#21333;&#20803;</text><polygon fill="#F1F1F1" points="252.5,201.543,368.5,201.543,380.5,213.543,368.5,225.543,252.5,225.543,240.5,213.543,252.5,201.543" style="stroke:#181818;stroke-width:0.5;"/><text fill="#000000" font-family="sans-serif" font-size="11" lengthAdjust="spacing" textLength="18" x="314.5" y="237.4131">yes</text><text fill="#000000" font-family="sans-serif" font-size="11" lengthAdjust="spacing" textLength="116" x="252.5" y="218.0977">&#26159;&#21542;&#36824;&#26377;&#26410;&#35782;&#21035;&#30340;&#23383;&#31526;?</text><rect fill="#F1F1F1" height="35.9609" rx="12.5" ry="12.5" style="stroke:#181818;stroke-width:0.5;" width="47" x="287" y="587.2568"/><text fill="#000000" font-family="sans-serif" font-size="12" lengthAdjust="spacing" textLength="24" x="300" y="610.2061">&#32467;&#26463;</text><ellipse cx="310.5" cy="654.2178" fill="none" rx="11" ry="11" style="stroke:#222222;stroke-width:1.0;"/><ellipse cx="310.5" cy="654.2178" fill="#222222" rx="6" ry="6" style="stroke:#222222;stroke-width:1.0;"/><line style="stroke:#181818;stroke-width:1.0;" x1="310.5" x2="310.5" y1="69.6211" y2="89.6211"/><polygon fill="#181818" points="306.5,79.6211,310.5,89.6211,314.5,79.6211,310.5,83.6211" style="stroke:#181818;stroke-width:1.0;"/><line style="stroke:#181818;stroke-width:1.0;" x1="310.5" x2="310.5" y1="125.582" y2="145.582"/><polygon fill="#181818" points="306.5,135.582,310.5,145.582,314.5,135.582,310.5,139.582" style="stroke:#181818;stroke-width:1.0;"/><line style="stroke:#181818;stroke-width:1.0;" x1="67.5" x2="67.5" y1="338.874" y2="373.5049"/><polygon fill="#181818" points="63.5,363.5049,67.5,373.5049,71.5,363.5049,67.5,367.5049" style="stroke:#181818;stroke-width:1.0;"/><line style="stroke:#181818;stroke-width:1.0;" x1="67.5" x2="67.5" y1="409.4658" y2="433.335"/><polygon fill="#181818" points="63.5,423.335,67.5,433.335,71.5,423.335,67.5,427.335" style="stroke:#181818;stroke-width:1.0;"/><line style="stroke:#181818;stroke-width:1.0;" x1="185" x2="185" y1="338.874" y2="373.5049"/><polygon fill="#181818" points="181,363.5049,185,373.5049,189,363.5049,185,367.5049" style="stroke:#181818;stroke-width:1.0;"/><line style="stroke:#181818;stroke-width:1.0;" x1="185" x2="185" y1="409.4658" y2="433.335"/><polygon fill="#181818" points="181,423.335,185,433.335,189,423.335,185,427.335" style="stroke:#181818;stroke-width:1.0;"/><line style="stroke:#181818;stroke-width:1.0;" x1="327" x2="327" y1="338.874" y2="373.5049"/><polygon fill="#181818" points="323,363.5049,327,373.5049,331,363.5049,327,367.5049" style="stroke:#181818;stroke-width:1.0;"/><line style="stroke:#181818;stroke-width:1.0;" x1="327" x2="327" y1="409.4658" y2="433.335"/><polygon fill="#181818" points="323,423.335,327,433.335,331,423.335,327,427.335" style="stroke:#181818;stroke-width:1.0;"/><line style="stroke:#181818;stroke-width:1.0;" x1="445" x2="445" y1="338.874" y2="373.5049"/><polygon fill="#181818" points="441,363.5049,445,373.5049,449,363.5049,445,367.5049" style="stroke:#181818;stroke-width:1.0;"/><line style="stroke:#181818;stroke-width:1.0;" x1="445" x2="445" y1="409.4658" y2="433.335"/><polygon fill="#181818" points="441,423.335,445,433.335,449,423.335,445,427.335" style="stroke:#181818;stroke-width:1.0;"/><line style="stroke:#181818;stroke-width:1.0;" x1="99" x2="140" y1="326.874" y2="326.874"/><polygon fill="#181818" points="130,322.874,140,326.874,130,330.874,134,326.874" style="stroke:#181818;stroke-width:1.0;"/><line style="stroke:#181818;stroke-width:1.0;" x1="230" x2="303" y1="326.874" y2="326.874"/><polygon fill="#181818" points="293,322.874,303,326.874,293,330.874,297,326.874" style="stroke:#181818;stroke-width:1.0;"/><line style="stroke:#181818;stroke-width:1.0;" x1="351" x2="416.5" y1="326.874" y2="326.874"/><polygon fill="#181818" points="406.5,322.874,416.5,326.874,406.5,330.874,410.5,326.874" style="stroke:#181818;stroke-width:1.0;"/><line style="stroke:#181818;stroke-width:1.0;" x1="310.5" x2="310.5" y1="294.874" y2="299.874"/><line style="stroke:#181818;stroke-width:1.0;" x1="310.5" x2="67.5" y1="299.874" y2="299.874"/><line style="stroke:#181818;stroke-width:1.0;" x1="67.5" x2="67.5" y1="299.874" y2="314.874"/><polygon fill="#181818" points="63.5,304.874,67.5,314.874,71.5,304.874,67.5,308.874" style="stroke:#181818;stroke-width:1.0;"/><line style="stroke:#181818;stroke-width:1.0;" x1="473.5" x2="546" y1="326.874" y2="326.874"/><line style="stroke:#181818;stroke-width:1.0;" x1="546" x2="546" y1="326.874" y2="369.1895"/><polygon fill="#181818" points="542,359.1895,546,369.1895,550,359.1895,546,363.1895" style="stroke:#181818;stroke-width:1.0;"/><line style="stroke:#181818;stroke-width:1.0;" x1="546" x2="546" y1="405.1504" y2="433.335"/><polygon fill="#181818" points="542,423.335,546,433.335,550,423.335,546,427.335" style="stroke:#181818;stroke-width:1.0;"/><line style="stroke:#181818;stroke-width:1.0;" x1="67.5" x2="546" y1="433.335" y2="433.335"/><line style="stroke:#181818;stroke-width:1.0;" x1="310.5" x2="310.5" y1="433.335" y2="453.335"/><polygon fill="#181818" points="306.5,443.335,310.5,453.335,314.5,443.335,310.5,447.335" style="stroke:#181818;stroke-width:1.0;"/><line style="stroke:#181818;stroke-width:1.0;" x1="310.5" x2="310.5" y1="489.2959" y2="509.2959"/><polygon fill="#181818" points="306.5,499.2959,310.5,509.2959,314.5,499.2959,310.5,503.2959" style="stroke:#181818;stroke-width:1.0;"/><line style="stroke:#181818;stroke-width:1.0;" x1="310.5" x2="310.5" y1="225.543" y2="258.9131"/><polygon fill="#181818" points="306.5,248.9131,310.5,258.9131,314.5,248.9131,310.5,252.9131" style="stroke:#181818;stroke-width:1.0;"/><line style="stroke:#181818;stroke-width:1.0;" x1="310.5" x2="310.5" y1="545.2568" y2="555.2568"/><line style="stroke:#181818;stroke-width:1.0;" x1="310.5" x2="597" y1="555.2568" y2="555.2568"/><polygon fill="#181818" points="593,413.335,597,403.335,601,413.335,597,409.335" style="stroke:#181818;stroke-width:1.0;"/><line style="stroke:#181818;stroke-width:1.0;" x1="597" x2="597" y1="213.543" y2="555.2568"/><line style="stroke:#181818;stroke-width:1.0;" x1="597" x2="380.5" y1="213.543" y2="213.543"/><polygon fill="#181818" points="390.5,209.543,380.5,213.543,390.5,217.543,386.5,213.543" style="stroke:#181818;stroke-width:1.0;"/><line style="stroke:#181818;stroke-width:1.0;" x1="240.5" x2="24" y1="213.543" y2="213.543"/><polygon fill="#181818" points="20,399.335,24,409.335,28,399.335,24,403.335" style="stroke:#181818;stroke-width:1.0;"/><line style="stroke:#181818;stroke-width:1.0;" x1="24" x2="24" y1="213.543" y2="567.2568"/><line style="stroke:#181818;stroke-width:1.0;" x1="24" x2="310.5" y1="567.2568" y2="567.2568"/><line style="stroke:#181818;stroke-width:1.0;" x1="310.5" x2="310.5" y1="567.2568" y2="587.2568"/><polygon fill="#181818" points="306.5,577.2568,310.5,587.2568,314.5,577.2568,310.5,581.2568" style="stroke:#181818;stroke-width:1.0;"/><line style="stroke:#181818;stroke-width:1.0;" x1="310.5" x2="310.5" y1="181.543" y2="201.543"/><polygon fill="#181818" points="306.5,191.543,310.5,201.543,314.5,191.543,310.5,195.543" style="stroke:#181818;stroke-width:1.0;"/><line style="stroke:#181818;stroke-width:1.0;" x1="310.5" x2="310.5" y1="623.2178" y2="643.2178"/><polygon fill="#181818" points="306.5,633.2178,310.5,643.2178,314.5,633.2178,310.5,637.2178" style="stroke:#181818;stroke-width:1.0;"/><!--SRC=[VP7DJeD058NtFCKiool0mfKB4vTz0HDfIcoe4HBZpaGfc8QKI5jhnRR6-6z1Gw84ghmCTuQ-XHSm1cFZSkuvtvaxS-eRzSrralaM3GPWTkZ4vbHjQq_Z10ABGxZhYfp0-bDgsZ0_Oy-tMJ9FusiulnUv_QRSaaYDZdomSJwYxWbr7pE_0-OJ6n-N_ZMUo2gf7KWgpn4YP7uClM4fYJYG6qK0UuZeR57n4gqfAQZdo7kG9KPkbbggb0E8KrpO7APX5ynJ5YMhmUG2z1iwCt0bl0xze0VBleTukMGramvUS5x9-HC4ORWqUYj8nqe_NBpWF_Z7z9l7j-XlQJpaIszvgBTt9ALmADjo8_yrmguyyCRVBLa3q8_OQmoJhbYesQS3HbHLHGxPeX_iaSKElPoAs6jxzmi0]--></g></svg>