<?xml version="1.0" encoding="us-ascii" standalone="no"?><svg xmlns="http://www.w3.org/2000/svg" xmlns:xlink="http://www.w3.org/1999/xlink" contentStyleType="text/css" height="477px" preserveAspectRatio="none" style="width:608px;height:477px;background:#FFFFFF;" version="1.1" viewBox="0 0 608 477" width="608px" zoomAndPan="magnify"><defs/><g><path d="M153,265 L419,265 A12.5,12.5 0 0 1 431.5,277.5 L431.5,293.6211 L140.5,293.6211 L140.5,277.5 A12.5,12.5 0 0 1 153,265 " fill="#F1F1F1" style="stroke:#F1F1F1;stroke-width:1.0;"/><rect fill="none" height="105.2031" rx="12.5" ry="12.5" style="stroke:#181818;stroke-width:0.5;" width="291" x="140.5" y="265"/><line style="stroke:#181818;stroke-width:0.5;" x1="140.5" x2="431.5" y1="293.6211" y2="293.6211"/><text fill="#000000" font-family="sans-serif" font-size="14" lengthAdjust="spacing" textLength="96" x="238" y="285.1074">&#21028;&#26029;&#20854;&#20182;Token</text><g id="&#21028;&#26029;&#20854;&#20182;Token.&#20851;&#38190;&#23383;"><rect fill="#F1F1F1" height="54.582" rx="12.5" ry="12.5" style="stroke:#181818;stroke-width:0.5;" width="126" x="152.5" y="305.6211"/><line style="stroke:#181818;stroke-width:0.5;" x1="152.5" x2="278.5" y1="334.2422" y2="334.2422"/><text fill="#000000" font-family="sans-serif" font-size="14" lengthAdjust="spacing" textLength="42" x="194.5" y="325.7285">&#20851;&#38190;&#23383;</text><text fill="#000000" font-family="sans-serif" font-size="12" lengthAdjust="spacing" textLength="106" x="157.5" y="352.1914">&#36755;&#20986;&#21040;&#20851;&#38190;&#23383;Token</text></g><g id="&#21028;&#26029;&#20854;&#20182;Token.&#20854;&#20182;"><rect fill="#F1F1F1" height="54.582" rx="12.5" ry="12.5" style="stroke:#181818;stroke-width:0.5;" width="126" x="296.5" y="305.6211"/><line style="stroke:#181818;stroke-width:0.5;" x1="296.5" x2="422.5" y1="334.2422" y2="334.2422"/><text fill="#000000" font-family="sans-serif" font-size="14" lengthAdjust="spacing" textLength="28" x="345.5" y="325.7285">&#20854;&#20182;</text><text fill="#000000" font-family="sans-serif" font-size="12" lengthAdjust="spacing" textLength="106" x="301.5" y="352.1914">&#36755;&#20986;&#21040;&#26631;&#35782;&#31526;Token</text></g><ellipse cx="16" cy="32" fill="#222222" rx="10" ry="10" style="stroke:#222222;stroke-width:1.0;"/><g id="START"><rect fill="#F1F1F1" height="50" rx="12.5" ry="12.5" style="stroke:#181818;stroke-width:0.5;" width="66" x="154" y="7"/><line style="stroke:#181818;stroke-width:0.5;" x1="154" x2="220" y1="35.6211" y2="35.6211"/><text fill="#000000" font-family="sans-serif" font-size="14" lengthAdjust="spacing" textLength="46" x="164" y="27.1074">START</text></g><g id="IDN"><rect fill="#F1F1F1" height="50" rx="12.5" ry="12.5" style="stroke:#181818;stroke-width:0.5;" width="50" x="361" y="7"/><line style="stroke:#181818;stroke-width:0.5;" x1="361" x2="411" y1="35.6211" y2="35.6211"/><text fill="#000000" font-family="sans-serif" font-size="14" lengthAdjust="spacing" textLength="22" x="375" y="27.1074">IDN</text></g><g id="ERROR"><rect fill="#F1F1F1" height="50" rx="12.5" ry="12.5" style="stroke:#181818;stroke-width:0.5;" width="70" x="251" y="136"/><line style="stroke:#181818;stroke-width:0.5;" x1="251" x2="321" y1="164.6211" y2="164.6211"/><text fill="#000000" font-family="sans-serif" font-size="14" lengthAdjust="spacing" textLength="50" x="261" y="156.1074">ERROR</text></g><ellipse cx="286" cy="460" fill="none" rx="11" ry="11" style="stroke:#222222;stroke-width:1.0;"/><ellipse cx="286" cy="460" fill="#222222" rx="6" ry="6" style="stroke:#222222;stroke-width:1.0;"/><!--link *start* to START--><g id="link_*start*_START"><path d="M26.18,32 C50.77,32 108.27,32 147.72,32 " fill="none" id="*start*-to-START" style="stroke:#181818;stroke-width:1.0;"/><polygon fill="#181818" points="153.72,32,144.72,28,148.72,32,144.72,36,153.72,32" style="stroke:#181818;stroke-width:1.0;"/><text fill="#000000" font-family="sans-serif" font-size="13" lengthAdjust="spacing" textLength="91" x="44.5" y="25.0283">&#36827;&#20837;&#26631;&#35782;&#31526;&#35782;&#21035;</text></g><!--link START to IDN--><g id="link_START_IDN"><path d="M220.31,32 C259.92,32 319.14,32 354.8,32 " fill="none" id="START-to-IDN" style="stroke:#181818;stroke-width:1.0;"/><polygon fill="#181818" points="360.8,32,351.8,28,355.8,32,351.8,36,360.8,32" style="stroke:#181818;stroke-width:1.0;"/><text fill="#000000" font-family="sans-serif" font-size="13" lengthAdjust="spacing" textLength="104" x="238.5" y="25.0283">&#25509;&#21463;&#23383;&#27597;&#21644;&#19979;&#21010;&#32447;</text></g><!--link START to ERROR--><g id="link_START_ERROR"><path d="M205.85,57.19 C223.47,79.78 245.9304,108.5985 263.5304,131.1685 " fill="none" id="START-to-ERROR" style="stroke:#181818;stroke-width:1.0;"/><polygon fill="#181818" points="267.22,135.9,264.8399,126.3431,264.1453,131.9571,258.5313,131.2625,267.22,135.9" style="stroke:#181818;stroke-width:1.0;"/><text fill="#000000" font-family="sans-serif" font-size="13" lengthAdjust="spacing" textLength="52" x="244" y="102.0283">&#20854;&#20182;&#23383;&#31526;</text></g><!--link IDN to IDN--><g id="link_IDN_IDN"><path d="M411.28,21.17 C428.77,17.89 446,21.5 446,32 C446,42.5 434.6672,47.2159 417.1772,43.9359 " fill="none" id="IDN-to-IDN" style="stroke:#181818;stroke-width:1.0;"/><polygon fill="#181818" points="411.28,42.83,419.3885,48.4204,416.1943,43.7516,420.8631,40.5574,411.28,42.83" style="stroke:#181818;stroke-width:1.0;"/><text fill="#000000" font-family="sans-serif" font-size="13" lengthAdjust="spacing" textLength="143" x="452" y="37.5283">&#25509;&#21463;&#23383;&#27597;&#12289;&#25968;&#23383;&#21644;&#19979;&#21010;&#32447;</text></g><!--link IDN to ERROR--><g id="link_IDN_ERROR"><path d="M366.96,57.19 C349.16,79.78 326.4516,108.6158 308.6816,131.1858 " fill="none" id="IDN-to-ERROR" style="stroke:#181818;stroke-width:1.0;"/><polygon fill="#181818" points="304.97,135.9,313.6803,131.3031,308.063,131.9715,307.3946,126.3543,304.97,135.9" style="stroke:#181818;stroke-width:1.0;"/><text fill="#000000" font-family="sans-serif" font-size="13" lengthAdjust="spacing" textLength="52" x="342" y="102.0283">&#20854;&#20182;&#23383;&#31526;</text></g><!--link ERROR to ????Token--><g id="link_ERROR_&#21028;&#26029;&#20854;&#20182;Token"><path d="M286,186.14 C286,207.1 286,232.18 286,258.73 " fill="none" id="ERROR-to-&#21028;&#26029;&#20854;&#20182;Token" style="stroke:#181818;stroke-width:1.0;"/><polygon fill="#181818" points="286,264.73,290,255.73,286,259.73,282,255.73,286,264.73" style="stroke:#181818;stroke-width:1.0;"/><text fill="#000000" font-family="sans-serif" font-size="13" lengthAdjust="spacing" textLength="126" x="287" y="231.0283">&#35782;&#21035;&#32467;&#26463;&#65292;&#36755;&#20986;Token</text></g><!--link ????Token to *end*--><g id="link_&#21028;&#26029;&#20854;&#20182;Token_*end*"><path d="M286,370.02 C286,399 286,426.56 286,442.95 " fill="none" id="&#21028;&#26029;&#20854;&#20182;Token-to-*end*" style="stroke:#181818;stroke-width:1.0;"/><polygon fill="#181818" points="286,448.95,290,439.95,286,443.95,282,439.95,286,448.95" style="stroke:#181818;stroke-width:1.0;"/><text fill="#000000" font-family="sans-serif" font-size="13" lengthAdjust="spacing" textLength="26" x="287" y="415.0283">&#32467;&#26463;</text></g><!--SRC=[Aov9B4bLUDgnvDcqjKzRjptPFIqaFpirJw6QIq7XQUlcbrFMFLqxtKhXnRx9JzjtFUtO01S3AmCh0cb2Kl5iGVkBzMtFroo3gAZbuehMYbNGjLC83d4C2b40gjm_-sdhKhWo8FcqOpKNH1QepDF53wZeMT_If_tJWVOyMz_xT5BFantTJpicFT-r7w7EDIZ8FmYe4k80e4gWMLmWpLZDUDpG-6pg1Y0RnJ2mSbncGGH1qXZ10_G4sDNFTqz-DdV- -pqz4Dz3V8mPc20pW85WfG1H3m00]--></g></svg>