<?xml version="1.0" encoding="us-ascii" standalone="no"?><svg xmlns="http://www.w3.org/2000/svg" xmlns:xlink="http://www.w3.org/1999/xlink" contentStyleType="text/css" height="520px" preserveAspectRatio="none" style="width:527px;height:520px;background:#FFFFFF;" version="1.1" viewBox="0 0 527 520" width="527px" zoomAndPan="magnify"><defs/><g><ellipse cx="258" cy="20" fill="#222222" rx="10" ry="10" style="stroke:#222222;stroke-width:1.0;"/><rect fill="#F1F1F1" height="35.9609" rx="12.5" ry="12.5" style="stroke:#181818;stroke-width:0.5;" width="143" x="186.5" y="50"/><text fill="#000000" font-family="sans-serif" font-size="12" lengthAdjust="spacing" textLength="120" x="199.5" y="72.9492">&#20174;&#23383;&#31526;&#36845;&#20195;&#22120;&#35835;&#21462;&#23383;&#31526;</text><rect fill="#F1F1F1" height="35.9609" rx="12.5" ry="12.5" style="stroke:#181818;stroke-width:0.5;" width="164" x="176" y="155.2764"/><text fill="#000000" font-family="sans-serif" font-size="12" lengthAdjust="spacing" textLength="144" x="186" y="178.2256">&#32487;&#32493;&#20174;&#23383;&#31526;&#36845;&#20195;&#22120;&#35835;&#21462;&#23383;&#31526;</text><polygon fill="#F1F1F1" points="170,211.2373,346,211.2373,358,223.2373,346,235.2373,170,235.2373,158,223.2373,170,211.2373" style="stroke:#181818;stroke-width:0.5;"/><text fill="#000000" font-family="sans-serif" font-size="11" lengthAdjust="spacing" textLength="176" x="170" y="227.792">&#24050;&#32463;&#35835;&#21462;&#30340;&#20004;&#20010;&#23383;&#31526;&#23646;&#20110;&#36816;&#31639;&#31526;&#21527;&#65311;</text><text fill="#000000" font-family="sans-serif" font-size="11" lengthAdjust="spacing" textLength="18" x="140" y="220.4766">yes</text><text fill="#000000" font-family="sans-serif" font-size="11" lengthAdjust="spacing" textLength="12" x="358" y="220.4766">no</text><rect fill="#F1F1F1" height="35.9609" rx="12.5" ry="12.5" style="stroke:#181818;stroke-width:0.5;" width="246" x="11" y="245.2373"/><text fill="#000000" font-family="sans-serif" font-size="12" lengthAdjust="spacing" textLength="226" x="21" y="268.1865">&#23558;&#36825;&#20004;&#20010;&#23383;&#31526;&#30475;&#20570;&#36816;&#31639;&#31526;&#28155;&#21152;Token&#21015;&#34920;&#20013;</text><rect fill="#F1F1F1" height="35.9609" rx="12.5" ry="12.5" style="stroke:#181818;stroke-width:0.5;" width="140" x="312" y="245.2373"/><text fill="#000000" font-family="sans-serif" font-size="12" lengthAdjust="spacing" textLength="120" x="322" y="268.1865">&#36845;&#20195;&#22120;&#22238;&#28335;&#19978;&#19968;&#20010;&#23383;&#31526;</text><rect fill="#F1F1F1" height="35.9609" rx="12.5" ry="12.5" style="stroke:#181818;stroke-width:0.5;" width="210" x="277" y="301.1982"/><text fill="#000000" font-family="sans-serif" font-size="12" lengthAdjust="spacing" textLength="190" x="287" y="324.1475">&#23558;&#35782;&#21035;&#30340;&#21333;&#20010;&#23383;&#31526;&#28155;&#21152;&#21040;Token&#21015;&#34920;</text><polygon fill="#F1F1F1" points="258,343.1592,270,355.1592,258,367.1592,246,355.1592,258,343.1592" style="stroke:#181818;stroke-width:0.5;"/><polygon fill="#F1F1F1" points="214,105.9609,302,105.9609,314,117.9609,302,129.9609,214,129.9609,202,117.9609,214,105.9609" style="stroke:#181818;stroke-width:0.5;"/><text fill="#000000" font-family="sans-serif" font-size="11" lengthAdjust="spacing" textLength="18" x="262" y="141.8311">yes</text><text fill="#000000" font-family="sans-serif" font-size="11" lengthAdjust="spacing" textLength="88" x="214" y="122.5156">&#23383;&#31526;&#26159;&#35745;&#31639;&#31526;&#21527;&#65311;</text><polygon fill="#F1F1F1" points="258,387.1592,270,399.1592,258,411.1592,246,399.1592,258,387.1592" style="stroke:#181818;stroke-width:0.5;"/><rect fill="#F1F1F1" height="35.9609" rx="12.5" ry="12.5" style="stroke:#181818;stroke-width:0.5;" width="71" x="222.5" y="431.1592"/><text fill="#000000" font-family="sans-serif" font-size="12" lengthAdjust="spacing" textLength="48" x="235.5" y="454.1084">&#32467;&#26463;&#35782;&#21035;</text><ellipse cx="258" cy="498.1201" fill="none" rx="11" ry="11" style="stroke:#222222;stroke-width:1.0;"/><ellipse cx="258" cy="498.1201" fill="#222222" rx="6" ry="6" style="stroke:#222222;stroke-width:1.0;"/><line style="stroke:#181818;stroke-width:1.0;" x1="258" x2="258" y1="30" y2="50"/><polygon fill="#181818" points="254,40,258,50,262,40,258,44" style="stroke:#181818;stroke-width:1.0;"/><line style="stroke:#181818;stroke-width:1.0;" x1="382" x2="382" y1="281.1982" y2="301.1982"/><polygon fill="#181818" points="378,291.1982,382,301.1982,386,291.1982,382,295.1982" style="stroke:#181818;stroke-width:1.0;"/><line style="stroke:#181818;stroke-width:1.0;" x1="158" x2="134" y1="223.2373" y2="223.2373"/><line style="stroke:#181818;stroke-width:1.0;" x1="134" x2="134" y1="223.2373" y2="245.2373"/><polygon fill="#181818" points="130,235.2373,134,245.2373,138,235.2373,134,239.2373" style="stroke:#181818;stroke-width:1.0;"/><line style="stroke:#181818;stroke-width:1.0;" x1="358" x2="382" y1="223.2373" y2="223.2373"/><line style="stroke:#181818;stroke-width:1.0;" x1="382" x2="382" y1="223.2373" y2="245.2373"/><polygon fill="#181818" points="378,235.2373,382,245.2373,386,235.2373,382,239.2373" style="stroke:#181818;stroke-width:1.0;"/><line style="stroke:#181818;stroke-width:1.0;" x1="134" x2="134" y1="281.1982" y2="355.1592"/><line style="stroke:#181818;stroke-width:1.0;" x1="134" x2="246" y1="355.1592" y2="355.1592"/><polygon fill="#181818" points="236,351.1592,246,355.1592,236,359.1592,240,355.1592" style="stroke:#181818;stroke-width:1.0;"/><line style="stroke:#181818;stroke-width:1.0;" x1="382" x2="382" y1="337.1592" y2="355.1592"/><line style="stroke:#181818;stroke-width:1.0;" x1="382" x2="270" y1="355.1592" y2="355.1592"/><polygon fill="#181818" points="280,351.1592,270,355.1592,280,359.1592,276,355.1592" style="stroke:#181818;stroke-width:1.0;"/><line style="stroke:#181818;stroke-width:1.0;" x1="258" x2="258" y1="191.2373" y2="211.2373"/><polygon fill="#181818" points="254,201.2373,258,211.2373,262,201.2373,258,205.2373" style="stroke:#181818;stroke-width:1.0;"/><line style="stroke:#181818;stroke-width:1.0;" x1="258" x2="258" y1="129.9609" y2="155.2764"/><polygon fill="#181818" points="254,145.2764,258,155.2764,262,145.2764,258,149.2764" style="stroke:#181818;stroke-width:1.0;"/><line style="stroke:#181818;stroke-width:1.0;" x1="314" x2="501" y1="117.9609" y2="117.9609"/><polygon fill="#181818" points="497,251.2178,501,261.2178,505,251.2178,501,255.2178" style="stroke:#181818;stroke-width:1.0;"/><line style="stroke:#181818;stroke-width:1.0;" x1="501" x2="501" y1="117.9609" y2="399.1592"/><line style="stroke:#181818;stroke-width:1.0;" x1="501" x2="270" y1="399.1592" y2="399.1592"/><polygon fill="#181818" points="280,395.1592,270,399.1592,280,403.1592,276,399.1592" style="stroke:#181818;stroke-width:1.0;"/><line style="stroke:#181818;stroke-width:1.0;" x1="258" x2="258" y1="367.1592" y2="387.1592"/><polygon fill="#181818" points="254,377.1592,258,387.1592,262,377.1592,258,381.1592" style="stroke:#181818;stroke-width:1.0;"/><line style="stroke:#181818;stroke-width:1.0;" x1="258" x2="258" y1="85.9609" y2="105.9609"/><polygon fill="#181818" points="254,95.9609,258,105.9609,262,95.9609,258,99.9609" style="stroke:#181818;stroke-width:1.0;"/><line style="stroke:#181818;stroke-width:1.0;" x1="258" x2="258" y1="411.1592" y2="431.1592"/><polygon fill="#181818" points="254,421.1592,258,431.1592,262,421.1592,258,425.1592" style="stroke:#181818;stroke-width:1.0;"/><line style="stroke:#181818;stroke-width:1.0;" x1="258" x2="258" y1="467.1201" y2="487.1201"/><polygon fill="#181818" points="254,477.1201,258,487.1201,262,477.1201,258,481.1201" style="stroke:#181818;stroke-width:1.0;"/><!--SRC=[XOvDQi905CVtSugtJAwGNACNA7J4q9989njtBOW4IrKGcwgjLfGgjZ6s6mT7o6NcPMRd5VmOI5tLpUFnFdw_FmklxqFYW1HDJ6Br_QcpH8e9zkOw5TXwCKENU2MmJ9-_fdevLijZZ-rujntPu36mgfJP49QfJm0S9MPA99UW02Vi-bU9bjceVatogUGBSu8_Gxbfwgpzl-uWn5LTPxtpN_NsX8_zuZTV2snyN0MtrCSerkEvvCan0RrZ52m_i0sdI8g3ORv99Mz8_b0mtJzPMiVewn0Ndxl5sZWmMfrfJWx_nYiHKnrGefE_Zmp09ImCAdi0]--></g></svg>